<svg xmlns="http://www.w3.org/2000/svg" viewBox="0 0 300 220">
  <defs>
    <filter id="shadow" x="-50%" y="-50%" width="200%" height="200%">
      <feOffset dx="0" dy="2"/>
      <feGaussianBlur stdDeviation="2" result="b"/>
      <feColorMatrix in="b" type="matrix" values="0 0 0 0 0   0 0 0 0 0   0 0 0 0 0   0 0 0 .25 0"/>
      <feBlend in2="SourceGraphic" mode="normal"/>
    </filter>
  </defs>
  <rect width="300" height="220" fill="none"/>
  <g filter="url(#shadow)">
    <path d="M72 140c-20-6-30-22-27-40 2-12 9-20 19-25-1-17 14-31 31-29 6-13 20-20 34-17 6 1 11 4 15 8 12-9 29-7 39 4 4-1 9 0 13 1 17 6 27 23 23 40 10 6 17 17 16 29-2 20-19 36-41 38l-96 8c-11 1-23-6-26-17z" fill="#FFD3D6" stroke="#EAA4AD" stroke-width="4"/>
    <circle cx="115" cy="115" r="6" fill="#2F2F2F"/>
    <circle cx="170" cy="110" r="6" fill="#2F2F2F"/>
    <path d="M130 140q12 8 26 0" stroke="#2F2F2F" stroke-width="5" fill="none" stroke-linecap="round"/>
  </g>
  <g transform="translate(210,60)">
    <circle cx="0" cy="0" r="32" fill="#FFE27A" stroke="#E5B94C" stroke-width="4"/>
    <path d="M0-14c6 0 10 5 10 11 0 5-4 9-8 10v8h-4v-10c4-1 6-4 6-8 0-4-3-7-7-7-4 0-7 3-7 7h-4c0-7 6-11 14-11z" fill="#FFF2B3"/>
    <line x1="0" y1="22" x2="0" y2="32" stroke="#E5B94C" stroke-width="4"/>
  </g>
</svg>